<?xml version="1.0" encoding="UTF-8" standalone="no"?>
<svg
   xmlns:dc="http://purl.org/dc/elements/1.1/"
   xmlns:cc="http://creativecommons.org/ns#"
   xmlns:rdf="http://www.w3.org/1999/02/22-rdf-syntax-ns#"
   xmlns:svg="http://www.w3.org/2000/svg"
   xmlns="http://www.w3.org/2000/svg"
   xmlns:sodipodi="http://sodipodi.sourceforge.net/DTD/sodipodi-0.dtd"
   xmlns:inkscape="http://www.inkscape.org/namespaces/inkscape"
   inkscape:version="1.1-dev (1:0.92.0+devel+201912232341+01c2384)"
   sodipodi:docname="back.svg"
   id="svg7"
   version="1.1"
   viewBox="0 0 157.344 186"
   height="186"
   width="157.344">
  <metadata
     id="metadata11">
    <rdf:RDF>
      <cc:Work
         rdf:about="">
        <dc:format>image/svg+xml</dc:format>
        <dc:type
           rdf:resource="http://purl.org/dc/dcmitype/StillImage" />
      </cc:Work>
    </rdf:RDF>
  </metadata>
  <sodipodi:namedview
     inkscape:current-layer="svg7"
     inkscape:window-maximized="0"
     inkscape:window-y="27"
     inkscape:window-x="67"
     inkscape:cy="85.090076"
     inkscape:cx="24.799761"
     inkscape:zoom="1.1801075"
     showgrid="false"
     id="namedview9"
     inkscape:window-height="480"
     inkscape:window-width="681"
     inkscape:pageshadow="2"
     inkscape:pageopacity="0"
     guidetolerance="10"
     gridtolerance="10"
     objecttolerance="10"
     borderopacity="1"
     inkscape:document-rotation="0"
     bordercolor="#666666"
     pagecolor="#ffffff" />
  <defs
     id="defs4">
    <style
       id="style2">
      .cls-1 {
        fill: red;
        fill-rule: evenodd;
        opacity: 0.36;
      }
    </style>
  </defs>
  <path
     inkscape:connector-curvature="0"
     style="opacity:0.36;fill:#ff0000;fill-rule:evenodd"
     id="back-3"
     class="cls-1"
     d="m 61.52392,9.303871 c 0,0 14.57,-10.4719991 28,-9.9999991 13.42999,0.472 57.83899,1.633 60.99999,4 3.161,2.3670001 7.277,3.9620001 7,15.9999991 -0.277,12.038 -0.357,77.416999 -10,108.999999 -7.271,28.777 -11,40 -11,40 0,0 -6.909,-1.047 -11,4 -4.091,5.047 -16,13 -16,13 0,0 -5.4,-5.407 -8,-4 -2.59999,1.407 -1.99999,1 -1.99999,1 0,0 -12.111,-12.329 -28,-14 -15.889002,-1.671 -23.990002,-1.535 -32.000002,-1 -8.01,0.535 -32.076,-9.337 -38,-32 -5.924,-22.663 10,-48.999999 10,-48.999999 0,0 29.371,-38.768 31,-43 1.629,-4.232 12.331,-26.938 19.000002,-34 z" />
</svg>
