<?xml version="1.0" encoding="UTF-8" standalone="no"?>
<svg
   xmlns:dc="http://purl.org/dc/elements/1.1/"
   xmlns:cc="http://creativecommons.org/ns#"
   xmlns:rdf="http://www.w3.org/1999/02/22-rdf-syntax-ns#"
   xmlns:svg="http://www.w3.org/2000/svg"
   xmlns="http://www.w3.org/2000/svg"
   xmlns:sodipodi="http://sodipodi.sourceforge.net/DTD/sodipodi-0.dtd"
   xmlns:inkscape="http://www.inkscape.org/namespaces/inkscape"
   inkscape:version="1.1-dev (1:0.92.0+devel+201912232341+01c2384)"
   sodipodi:docname="seat.svg"
   id="svg7"
   version="1.1"
   viewBox="0 0 233.531 84.406"
   height="84.406"
   width="233.531">
  <metadata
     id="metadata11">
    <rdf:RDF>
      <cc:Work
         rdf:about="">
        <dc:format>image/svg+xml</dc:format>
        <dc:type
           rdf:resource="http://purl.org/dc/dcmitype/StillImage" />
      </cc:Work>
    </rdf:RDF>
  </metadata>
  <sodipodi:namedview
     inkscape:current-layer="svg7"
     inkscape:window-maximized="0"
     inkscape:window-y="27"
     inkscape:window-x="67"
     inkscape:cy="8.3227343"
     inkscape:cx="59.643217"
     inkscape:zoom="0.90761078"
     showgrid="false"
     id="namedview9"
     inkscape:window-height="480"
     inkscape:window-width="676"
     inkscape:pageshadow="2"
     inkscape:pageopacity="0"
     guidetolerance="10"
     gridtolerance="10"
     objecttolerance="10"
     borderopacity="1"
     inkscape:document-rotation="0"
     bordercolor="#666666"
     pagecolor="#ffffff" />
  <defs
     id="defs4">
    <style
       id="style2">
      .cls-1 {
        fill: red;
        fill-rule: evenodd;
        opacity: 0.36;
      }
    </style>
  </defs>
  <path
     inkscape:connector-curvature="0"
     style="opacity:0.36;fill:#ff0000;fill-rule:evenodd"
     id="seat-3"
     class="cls-1"
     d="m 227.531,51.031 c 0,0 5.812,-13.366 6,-18 a 9.321,9.321 0 0 0 -5,-9 c -2.639,-1.307 -6.321,0.05 -8,1 -1.679,0.95 -17,14 -17,14 l -2,1 c 0,0 -4.845,-4.613 -7,-4 a 23.991,23.991 0 0 0 -3,1 c 0,0 -11.848,-11.43 -25,-13 -13.152,-1.57 -38,-2 -38,-2 a 30.6,30.6 0 0 1 -13,-4 c -6.1,-3.7 -18,-14.000001 -18,-14.000001 l -5,3 c 0,0 -21.150002,-6.545 -39.000002,-7 -17.85,-0.455 -45.173,5.388 -51,10.000001 -2.1630003,7.884 -3.2760003,24.07 -2.0000003,29 a 22.059,22.059 0 0 0 8.0000003,12 c 3.613,2.615 76,26 76,26 a 5.541,5.541 0 0 0 3,0 c 1.316,-0.493 6.000002,2 6.000002,2 v -9 l 6,-1 c 0,0 21.883,13.879 31,15 9.117,1.121 20.779,0.877 57,-15 25.378,-11.147 40,-18 40,-18 z" />
</svg>
